<?xml version="1.0" encoding="utf-8"?><svg viewBox="0 0 1200 800" xmlns="http://www.w3.org/2000/svg" xmlns:xlink="http://www.w3.org/1999/xlink"><style>:root>svg{display:none}:root>svg:target{display:block}</style><svg viewBox="-35.2 -41.333 305.067 248" id="YouTube" xmlns="http://www.w3.org/2000/svg"><path d="M93.333 117.559V47.775l61.334 34.893zm136.43-91.742c-2.699-10.162-10.651-18.165-20.747-20.881C190.716 0 117.333 0 117.333 0S43.951 0 25.651 4.936C15.555 7.652 7.603 15.655 4.904 25.817 0 44.236 0 82.667 0 82.667s0 38.429 4.904 56.849c2.699 10.163 10.65 18.165 20.747 20.883 18.3 4.934 91.682 4.934 91.682 4.934s73.383 0 91.683-4.934c10.096-2.718 18.048-10.72 20.747-20.883 4.904-18.42 4.904-56.85 4.904-56.85s0-38.43-4.904-56.849" fill="#fff"/></svg><svg fill="none" viewBox="0 0 11 20" id="facebook" xmlns="http://www.w3.org/2000/svg"><path d="M9.12 3.32H11V.14A26.111 26.111 0 008.26 0C5.54 0 3.68 1.66 3.68 4.7v2.62H.61v3.56h3.07V20h3.68v-9.12h3.06l.46-3.56H7.36V5.05c0-1.05.28-1.73 1.76-1.73z" fill="#F5EFDB"/></svg><svg fill="none" viewBox="0 0 20 20" id="instagram" xmlns="http://www.w3.org/2000/svg"><path d="M15.34 3.46a1.2 1.2 0 100 2.4 1.2 1.2 0 000-2.4zm4.6 2.42a7.588 7.588 0 00-.46-2.43 4.94 4.94 0 00-1.16-1.77A4.7 4.7 0 0016.55.53a7.3 7.3 0 00-2.43-.47C13.06 0 12.72 0 10 0S6.94 0 5.88.06a7.3 7.3 0 00-2.43.47 4.78 4.78 0 00-1.77 1.15A4.7 4.7 0 00.53 3.45a7.3 7.3 0 00-.47 2.43C0 6.94 0 7.28 0 10s0 3.06.06 4.12a7.3 7.3 0 00.47 2.43 4.7 4.7 0 001.15 1.77 4.78 4.78 0 001.77 1.15 7.3 7.3 0 002.43.47C6.94 20 7.28 20 10 20s3.06 0 4.12-.06a7.3 7.3 0 002.43-.47 4.7 4.7 0 001.77-1.15 4.85 4.85 0 001.16-1.77c.285-.78.44-1.6.46-2.43 0-1.06.06-1.4.06-4.12s0-3.06-.06-4.12zM18.14 14a5.61 5.61 0 01-.34 1.86 3.06 3.06 0 01-.75 1.15c-.324.33-.717.586-1.15.75a5.61 5.61 0 01-1.86.34c-1 .05-1.37.06-4 .06s-3 0-4-.06a5.73 5.73 0 01-1.94-.3 3.27 3.27 0 01-1.1-.75 3 3 0 01-.74-1.15 5.54 5.54 0 01-.4-1.9c0-1-.06-1.37-.06-4s0-3 .06-4a5.54 5.54 0 01.35-1.9A3 3 0 013 3a3.14 3.14 0 011.1-.8A5.73 5.73 0 016 1.86c1 0 1.37-.06 4-.06s3 0 4 .06a5.61 5.61 0 011.86.34 3.06 3.06 0 011.19.8c.328.307.584.683.75 1.1.222.609.337 1.252.34 1.9.05 1 .06 1.37.06 4s-.01 3-.06 4zM10 4.87A5.13 5.13 0 1015.14 10 5.12 5.12 0 0010 4.87zm0 8.46a3.33 3.33 0 110-6.66 3.33 3.33 0 010 6.66z" fill="#F5EFDB"/></svg><svg fill="none" viewBox="0 0 23 20" id="twitter" xmlns="http://www.w3.org/2000/svg"><path d="M22.991 1.95a1 1 0 00-1.51-.86 7.48 7.48 0 01-1.873.794A5.152 5.152 0 0016.233.642a5.233 5.233 0 00-5.223 5.063 11.032 11.032 0 01-6.814-3.924 1.011 1.011 0 00-.857-.365.998.998 0 00-.785.5 5.275 5.275 0 00-.242 4.769l-.002.002a1.041 1.041 0 00-.496.888c-.001.147.007.294.027.44a5.185 5.185 0 001.568 3.312.999.999 0 00-.066.77 5.204 5.204 0 002.362 2.921 7.465 7.465 0 01-3.59.449A1 1 0 001.45 17.3a12.942 12.942 0 007.01 2.061 12.788 12.788 0 0012.465-9.363c.353-1.183.533-2.412.535-3.646l-.001-.2a5.77 5.77 0 001.532-4.202zm-3.306 3.212a.995.995 0 00-.234.702c.01.165.009.331.009.488a10.826 10.826 0 01-.454 3.08 10.685 10.685 0 01-10.546 7.93c-.86 0-1.715-.101-2.55-.301a9.48 9.48 0 002.942-1.564 1.001 1.001 0 00-.602-1.786 3.208 3.208 0 01-2.214-.935c.15-.028.298-.063.445-.105a1 1 0 00-.08-1.944 3.197 3.197 0 01-2.25-1.725c.181.025.363.04.545.046a1.021 1.021 0 00.984-.696 1 1 0 00-.4-1.137A3.196 3.196 0 013.86 4.344a13.014 13.014 0 008.21 3.48 1.02 1.02 0 00.817-.36 1 1 0 00.206-.867 3.164 3.164 0 01-.087-.729 3.23 3.23 0 014.506-2.962c.403.176.766.433 1.065.756a.993.993 0 00.921.298 9.27 9.27 0 001.212-.322 6.679 6.679 0 01-1.026 1.524z" fill="#F5EFDB"/></svg><svg viewBox="0 0 26.14 14.91" id="vk" xmlns="http://www.w3.org/2000/svg"><path d="M26 13.47l-.09-.17a13.55 13.55 0 00-2.6-3q-.87-.83-1.1-1.12A1 1 0 0122 8a10.27 10.27 0 011.22-1.78l.88-1.16q2.35-3.13 2-4L26 .94a.8.8 0 00-.4-.22 2.14 2.14 0 00-.87 0h-3.92a.51.51 0 00-.27 0h-.3a.6.6 0 00-.15.14.93.93 0 00-.14.24 22.22 22.22 0 01-1.46 3.06q-.5.84-.93 1.46a7 7 0 01-.71.91 4.94 4.94 0 01-.52.47q-.23.18-.35.15l-.23-.05a.9.9 0 01-.31-.33 1.49 1.49 0 01-.16-.53V1.6a3.14 3.14 0 000-.62 2.12 2.12 0 00-.14-.44.73.73 0 00-.28-.33 1.57 1.57 0 00-.46-.18A9 9 0 0012.57 0a8.93 8.93 0 00-3.25.33 1.83 1.83 0 00-.52.41q-.25.3-.07.33a1.67 1.67 0 011.16.59l.08.16a2.6 2.6 0 01.19.63 6.32 6.32 0 01.12 1 10.59 10.59 0 010 1.7q-.07.71-.13 1.1a2.21 2.21 0 01-.18.64 2.69 2.69 0 01-.16.3l-.07.07a1 1 0 01-.37.07.86.86 0 01-.46-.19 3.27 3.27 0 01-.56-.52 7 7 0 01-.66-.93q-.37-.6-.76-1.42l-.22-.39q-.2-.38-.56-1.11t-.62-1.43A.9.9 0 005.2.9h-.07a.93.93 0 00-.22-.16A1.44 1.44 0 004.6.65L.87.68A1 1 0 00.1.94L0 1a.44.44 0 000 .22 1.08 1.08 0 00.08.37Q.9 3.53 1.86 5.31t1.66 2.87Q4.23 9.27 5 10.24t1 1.24l.37.41.34.33a8.06 8.06 0 001 .78 16.34 16.34 0 001.4.9 7.6 7.6 0 001.79.72 6.19 6.19 0 002 .22h1.57a1.08 1.08 0 00.72-.3l.05-.07a.9.9 0 00.1-.25 1.38 1.38 0 000-.37 4.48 4.48 0 01.09-1.05 2.77 2.77 0 01.23-.71 1.74 1.74 0 01.29-.4 1.19 1.19 0 01.23-.2h.11a.86.86 0 01.77.21 4.52 4.52 0 01.83.79q.39.47.93 1.05a6.41 6.41 0 001 .87l.27.16a3.31 3.31 0 00.71.3 1.53 1.53 0 00.76.07l3.48-.05a1.58 1.58 0 00.8-.17.68.68 0 00.34-.37 1.06 1.06 0 000-.46 1.71 1.71 0 00-.1-.36z" fill="#fff"/></svg></svg>